<svg width="183" height="30" viewBox="0 0 183 30" fill="none" xmlns="http://www.w3.org/2000/svg">
<path d="M42.79 20.042V19.692L42.916 19.678C43.2427 19.6313 43.5087 19.566 43.714 19.482C43.9287 19.398 44.1107 19.2627 44.26 19.076C44.4187 18.88 44.568 18.614 44.708 18.278L48.096 10.06H48.572L51.876 18.278C52.0627 18.7353 52.2633 19.0713 52.478 19.286C52.6927 19.5007 52.9867 19.6267 53.36 19.664L53.64 19.692V20.042L51.904 20L49.664 20.042V19.692L49.944 19.664C50.2707 19.6267 50.504 19.5567 50.644 19.454C50.784 19.3513 50.854 19.2067 50.854 19.02C50.854 18.8333 50.7887 18.5813 50.658 18.264L49.93 16.444H45.982L45.226 18.264C45.1607 18.432 45.1047 18.586 45.058 18.726C45.0113 18.8567 44.988 18.9733 44.988 19.076C44.988 19.2533 45.0627 19.3887 45.212 19.482C45.3707 19.5753 45.6273 19.636 45.982 19.664L46.262 19.692V20.042L44.484 20L42.79 20.042ZM46.164 15.996H49.762L47.998 11.558L46.164 15.996ZM59.2276 20.056V19.706L59.5076 19.678C59.8343 19.6407 60.0816 19.594 60.2496 19.538C60.427 19.482 60.5483 19.3513 60.6136 19.146C60.679 18.9407 60.7116 18.6047 60.7116 18.138V10.914C60.6276 10.8113 60.5016 10.6993 60.3336 10.578C60.1656 10.4473 59.9183 10.382 59.5916 10.382H59.1716V10.018L61.8876 10.06C62.0556 10.2933 62.2796 10.6013 62.5596 10.984C62.849 11.3667 63.1663 11.7913 63.5116 12.258C63.8663 12.7247 64.2303 13.2053 64.6036 13.7C64.977 14.1853 65.3363 14.6567 65.6816 15.114C66.0363 15.5713 66.3536 15.982 66.6336 16.346C66.9136 16.71 67.133 16.9993 67.2916 17.214V11.922C67.2916 11.4553 67.259 11.124 67.1936 10.928C67.1283 10.7227 67.007 10.592 66.8296 10.536C66.6616 10.4707 66.4143 10.424 66.0876 10.396L65.8076 10.368V10.018L67.6276 10.06L69.3356 10.018V10.368L69.0556 10.396C68.7383 10.4333 68.491 10.4847 68.3136 10.55C68.1363 10.606 68.015 10.732 67.9496 10.928C67.8843 11.124 67.8516 11.4553 67.8516 11.922V20H67.4316C67.2823 19.692 67.0583 19.314 66.7596 18.866C66.4703 18.4087 66.1343 17.9093 65.7516 17.368C65.369 16.8267 64.9676 16.276 64.5476 15.716C64.137 15.1467 63.7263 14.596 63.3156 14.064C62.905 13.532 62.5223 13.0467 62.1676 12.608C61.813 12.1693 61.5143 11.8053 61.2716 11.516V18.138C61.2716 18.6047 61.3043 18.9407 61.3696 19.146C61.435 19.3513 61.5563 19.482 61.7336 19.538C61.911 19.594 62.1583 19.6407 62.4756 19.678L62.7556 19.706V20.056L60.9636 20L59.2276 20.056ZM75.4151 20.056V19.706L75.6951 19.678C76.0218 19.6407 76.2691 19.594 76.4371 19.538C76.6145 19.482 76.7358 19.3513 76.8011 19.146C76.8665 18.9407 76.8991 18.6047 76.8991 18.138V10.914C76.8151 10.8113 76.6891 10.6993 76.5211 10.578C76.3531 10.4473 76.1058 10.382 75.7791 10.382H75.3591V10.018L78.0751 10.06C78.2431 10.2933 78.4671 10.6013 78.7471 10.984C79.0365 11.3667 79.3538 11.7913 79.6991 12.258C80.0538 12.7247 80.4178 13.2053 80.7911 13.7C81.1645 14.1853 81.5238 14.6567 81.8691 15.114C82.2238 15.5713 82.5411 15.982 82.8211 16.346C83.1011 16.71 83.3205 16.9993 83.4791 17.214V11.922C83.4791 11.4553 83.4465 11.124 83.3811 10.928C83.3158 10.7227 83.1945 10.592 83.0171 10.536C82.8491 10.4707 82.6018 10.424 82.2751 10.396L81.9951 10.368V10.018L83.8151 10.06L85.5231 10.018V10.368L85.2431 10.396C84.9258 10.4333 84.6785 10.4847 84.5011 10.55C84.3238 10.606 84.2025 10.732 84.1371 10.928C84.0718 11.124 84.0391 11.4553 84.0391 11.922V20H83.6191C83.4698 19.692 83.2458 19.314 82.9471 18.866C82.6578 18.4087 82.3218 17.9093 81.9391 17.368C81.5565 16.8267 81.1551 16.276 80.7351 15.716C80.3245 15.1467 79.9138 14.596 79.5031 14.064C79.0925 13.532 78.7098 13.0467 78.3551 12.608C78.0005 12.1693 77.7018 11.8053 77.4591 11.516V18.138C77.4591 18.6047 77.4918 18.9407 77.5571 19.146C77.6225 19.3513 77.7438 19.482 77.9211 19.538C78.0985 19.594 78.3458 19.6407 78.6631 19.678L78.9431 19.706V20.056L77.1511 20L75.4151 20.056ZM90.2861 20.042V19.692L90.4121 19.678C90.7388 19.6313 91.0048 19.566 91.2101 19.482C91.4248 19.398 91.6068 19.2627 91.7561 19.076C91.9148 18.88 92.0641 18.614 92.2041 18.278L95.5921 10.06H96.0681L99.3721 18.278C99.5588 18.7353 99.7594 19.0713 99.9741 19.286C100.189 19.5007 100.483 19.6267 100.856 19.664L101.136 19.692V20.042L99.4001 20L97.1601 20.042V19.692L97.4401 19.664C97.7668 19.6267 98.0001 19.5567 98.1401 19.454C98.2801 19.3513 98.3501 19.2067 98.3501 19.02C98.3501 18.8333 98.2848 18.5813 98.1541 18.264L97.4261 16.444H93.4781L92.7221 18.264C92.6568 18.432 92.6008 18.586 92.5541 18.726C92.5074 18.8567 92.4841 18.9733 92.4841 19.076C92.4841 19.2533 92.5588 19.3887 92.7081 19.482C92.8668 19.5753 93.1234 19.636 93.4781 19.664L93.7581 19.692V20.042L91.9801 20L90.2861 20.042ZM93.6601 15.996H97.2581L95.4941 11.558L93.6601 15.996ZM115.406 20.042V19.692L115.686 19.664C116.012 19.6267 116.26 19.58 116.428 19.524C116.605 19.4587 116.726 19.328 116.792 19.132C116.857 18.9267 116.89 18.5953 116.89 18.138V11.922C116.89 11.4553 116.857 11.124 116.792 10.928C116.726 10.732 116.605 10.606 116.428 10.55C116.26 10.4847 116.012 10.4333 115.686 10.396L115.406 10.368V10.018L117.478 10.06H119.382C119.942 10.06 120.464 10.0973 120.95 10.172C121.435 10.2373 121.86 10.368 122.224 10.564C122.588 10.7507 122.872 11.026 123.078 11.39C123.283 11.754 123.386 12.2253 123.386 12.804C123.386 13.6347 123.073 14.3067 122.448 14.82C121.822 15.3333 120.912 15.59 119.718 15.59H118.08V18.138C118.08 18.5953 118.117 18.9267 118.192 19.132C118.276 19.328 118.42 19.4587 118.626 19.524C118.831 19.58 119.12 19.6267 119.494 19.664L119.802 19.692V20.042L117.436 20L115.406 20.042ZM119.928 10.452H118.08V15.17H119.718C120.362 15.17 120.852 15.0767 121.188 14.89C121.524 14.7033 121.752 14.4327 121.874 14.078C121.995 13.7233 122.056 13.2987 122.056 12.804C122.056 12.272 121.986 11.852 121.846 11.544C121.715 11.2267 121.538 10.9887 121.314 10.83C121.099 10.6713 120.866 10.5687 120.614 10.522C120.371 10.4753 120.142 10.452 119.928 10.452ZM127.788 20.042V19.692L127.914 19.678C128.241 19.6313 128.507 19.566 128.712 19.482C128.927 19.398 129.109 19.2627 129.258 19.076C129.417 18.88 129.566 18.614 129.706 18.278L133.094 10.06H133.57L136.874 18.278C137.061 18.7353 137.261 19.0713 137.476 19.286C137.691 19.5007 137.985 19.6267 138.358 19.664L138.638 19.692V20.042L136.902 20L134.662 20.042V19.692L134.942 19.664C135.269 19.6267 135.502 19.5567 135.642 19.454C135.782 19.3513 135.852 19.2067 135.852 19.02C135.852 18.8333 135.787 18.5813 135.656 18.264L134.928 16.444H130.98L130.224 18.264C130.159 18.432 130.103 18.586 130.056 18.726C130.009 18.8567 129.986 18.9733 129.986 19.076C129.986 19.2533 130.061 19.3887 130.21 19.482C130.369 19.5753 130.625 19.636 130.98 19.664L131.26 19.692V20.042L129.482 20L127.788 20.042ZM131.162 15.996H134.76L132.996 11.558L131.162 15.996ZM147.269 20.14L143.601 11.502C143.48 11.2127 143.326 10.9793 143.139 10.802C142.962 10.6153 142.7 10.4893 142.355 10.424L142.075 10.368V10.018L144.161 10.06L146.247 10.018V10.368L145.827 10.41C145.538 10.438 145.304 10.5127 145.127 10.634C144.959 10.746 144.875 10.9187 144.875 11.152C144.875 11.32 144.926 11.53 145.029 11.782L147.857 18.488L150.573 11.768C150.629 11.6373 150.666 11.5207 150.685 11.418C150.713 11.306 150.727 11.208 150.727 11.124C150.727 10.9 150.652 10.7367 150.503 10.634C150.354 10.522 150.148 10.452 149.887 10.424L149.397 10.368V10.018L151.357 10.06L152.757 10.018V10.354L152.435 10.424C152.08 10.4987 151.805 10.6433 151.609 10.858C151.413 11.0727 151.236 11.3807 151.077 11.782L147.717 20.14H147.269ZM158.363 20.042V19.692L158.643 19.664C158.969 19.6267 159.217 19.58 159.385 19.524C159.562 19.4587 159.683 19.328 159.749 19.132C159.814 18.9267 159.847 18.5953 159.847 18.138V11.922C159.847 11.4553 159.814 11.124 159.749 10.928C159.683 10.732 159.562 10.606 159.385 10.55C159.217 10.4847 158.969 10.4333 158.643 10.396L158.363 10.368V10.018L160.463 10.06L162.269 10.018V10.34L162.045 10.368C161.774 10.396 161.564 10.438 161.415 10.494C161.275 10.55 161.177 10.6713 161.121 10.858C161.065 11.0353 161.037 11.334 161.037 11.754V17.592C161.037 18.0493 161.06 18.4273 161.107 18.726C161.163 19.0247 161.307 19.244 161.541 19.384C161.774 19.524 162.152 19.594 162.675 19.594H163.725C164.537 19.594 165.12 19.3793 165.475 18.95C165.839 18.5113 166.053 17.8813 166.119 17.06H166.427L166.287 20.042L160.435 20L158.363 20.042ZM171.962 20.042V19.692L172.088 19.678C172.415 19.6313 172.681 19.566 172.886 19.482C173.101 19.398 173.283 19.2627 173.432 19.076C173.591 18.88 173.74 18.614 173.88 18.278L177.268 10.06H177.744L181.048 18.278C181.235 18.7353 181.435 19.0713 181.65 19.286C181.865 19.5007 182.159 19.6267 182.532 19.664L182.812 19.692V20.042L181.076 20L178.836 20.042V19.692L179.116 19.664C179.443 19.6267 179.676 19.5567 179.816 19.454C179.956 19.3513 180.026 19.2067 180.026 19.02C180.026 18.8333 179.961 18.5813 179.83 18.264L179.102 16.444H175.154L174.398 18.264C174.333 18.432 174.277 18.586 174.23 18.726C174.183 18.8567 174.16 18.9733 174.16 19.076C174.16 19.2533 174.235 19.3887 174.384 19.482C174.543 19.5753 174.799 19.636 175.154 19.664L175.434 19.692V20.042L173.656 20L171.962 20.042ZM175.336 15.996H178.934L177.17 11.558L175.336 15.996Z" fill="white"/>
<path d="M14.8802 0L0 22.6029V0H14.8802H30.043V22.6029L14.8802 0Z" fill="#7A1E1E"/>
<path d="M14.9703 6.96924L30.0389 30H0L14.9703 6.96924Z" fill="#7A1E1E"/>
</svg>
